<svg width="108" height="106" viewBox="0 0 108 106" fill="none" xmlns="http://www.w3.org/2000/svg">
<path d="M52.6386 78.2518L41.8864 73.4304C41.567 73.2874 41.2184 73.2221 40.869 73.2399C40.5197 73.2577 40.1795 73.358 39.8762 73.5327L35.1146 76.277C34.7843 76.4669 34.5083 76.7389 34.3133 77.0667C34.1182 77.3945 34.0105 77.7671 34.0007 78.1487C33.9909 78.5303 34.0793 78.908 34.2573 79.2454C34.4352 79.5828 34.6969 79.8687 35.017 80.0754L51.2452 90.5723C51.5411 90.7634 51.8781 90.8813 52.2285 90.9161C52.5788 90.9509 52.9323 90.9017 53.2599 90.7724L72.3415 83.2111L65.9025 99.9705C65.7386 100.393 65.7076 100.856 65.8136 101.297C65.9196 101.738 66.1575 102.136 66.4955 102.437C66.8336 102.739 67.2554 102.93 67.7047 102.984C68.1539 103.038 68.609 102.954 69.0088 102.742L73.3 100.518C73.6882 100.318 74.0092 100.009 74.223 99.6281L86.2045 77.7092L101.523 70.9263C102.91 70.3429 104.009 69.2312 104.578 67.8357C105.147 66.4402 105.14 64.8753 104.558 63.4851C103.976 62.0949 102.867 60.9933 101.475 60.4228C100.083 59.8522 98.5212 59.8594 97.1342 60.4427L52.6386 78.2518Z" stroke="white" stroke-width="5" stroke-miterlimit="10"/>
<path d="M81 67.8178L63.9888 57.3405C63.6592 57.1348 63.2802 57.018 62.89 57.0019C62.4998 56.9858 62.1122 57.071 61.7662 57.2488L57.2056 59.5626C56.8612 59.7366 56.569 59.9961 56.3582 60.3152C56.1473 60.6344 56.025 61.0021 56.0034 61.3819C55.9819 61.7618 56.0618 62.1406 56.2352 62.4808C56.4087 62.821 56.6696 63.1107 56.9923 63.3213L70.2785 72" stroke="white" stroke-width="5" stroke-miterlimit="10"/>
<path d="M29.8313 69C23.6185 67.7443 17.8914 64.7602 13.3153 60.3944C8.7392 56.0286 5.50204 50.4605 3.97991 44.3368C2.45778 38.2132 2.71318 31.7855 4.71643 25.8006C6.71969 19.8156 10.3885 14.5192 15.2967 10.5265C20.2049 6.53388 26.151 4.009 32.444 3.24524C38.737 2.48148 45.1186 3.5102 50.8474 6.21186C56.5762 8.91352 61.417 13.1772 64.8073 18.5076C68.1976 23.8379 69.9982 30.0161 70 36.3242" stroke="white" stroke-width="5" stroke-miterlimit="10"/>
<path d="M15.1472 62L18.1965 47.8455H21.4636C22.1529 47.8454 22.833 47.6995 23.4525 47.4189C24.0719 47.1383 24.6143 46.7305 25.0386 46.2263C25.4628 45.7222 25.7577 45.135 25.901 44.5092C26.0442 43.8835 26.0319 43.2357 25.8651 42.615L23.5963 34.1922C23.3514 33.2808 22.7851 32.4714 21.9875 31.893C21.19 31.3146 20.207 31.0003 19.1948 31H3" stroke="white" stroke-width="5" stroke-miterlimit="10"/>
<path d="M63 17H50.7704C49.7634 17.0003 48.7854 17.3336 47.9919 17.947C47.1985 18.5605 46.6351 19.4187 46.3914 20.3853L44.1342 29.3177C43.9682 29.9759 43.956 30.6629 44.0985 31.3265C44.241 31.9901 44.5344 32.6128 44.9565 33.1475C45.3786 33.6821 45.9182 34.1146 46.5345 34.4122C47.1508 34.7097 47.8275 34.8644 48.5132 34.8646H53.2669L55.646 49" stroke="white" stroke-width="5" stroke-miterlimit="10"/>
</svg>
