<svg width="78" height="81" viewBox="0 0 78 81" fill="none" xmlns="http://www.w3.org/2000/svg">
<path d="M42.7928 40.2034C43.5084 40.1257 44.0254 39.482 43.9477 38.7663C43.87 38.0501 43.2282 37.5362 42.5101 37.6108C34.0434 38.5282 30.0176 35.4097 28.1331 32.6294C25.4998 28.7436 25.4411 23.1345 27.984 18.3396C30.5174 13.5638 34.9679 10.8254 40.1963 10.8254H40.2C44.1832 10.8254 47.7562 12.4502 49.758 15.1708C51.8464 18.0085 52.1876 21.9528 50.7461 26.5782C50.1807 28.3934 48.3357 30.7746 46.712 31.2438C46.0499 31.4373 45.5265 31.3661 45.1165 31.0267C44.6441 30.6338 44.4747 30.024 44.4888 29.7826C44.4914 29.7674 44.4926 29.7533 44.4939 29.738L45.9226 15.452C45.999 14.7358 45.4807 14.0933 44.7651 14.0176C44.0367 13.938 43.4064 14.4595 43.33 15.1757L43.2036 16.3605C43.1808 16.3435 43.1621 16.323 43.139 16.3065C41.4682 15.105 39.1272 14.9879 36.874 15.9939C33.0373 17.704 30.2671 23.1395 30.9451 27.6249C31.4538 30.9891 33.8255 33.1679 37.454 33.6027C39.1195 33.8008 41.1639 33.3092 42.6805 32.188C42.9007 32.5044 43.1606 32.7922 43.4509 33.0334C44.5256 33.9248 45.9403 34.1801 47.4365 33.749C50.0558 32.9913 52.4421 29.9022 53.2366 27.3535C55.3809 20.4697 53.6708 16.0881 51.8589 13.6253C49.3669 10.2388 45.0082 8.21729 40.1999 8.21729H40.1961C33.9713 8.21729 28.6805 11.4612 25.6804 17.1169C22.6905 22.754 22.8057 29.417 25.9745 34.0922C28.7562 38.1964 33.5676 40.3756 39.7091 40.3756C40.7031 40.3759 41.732 40.3186 42.7928 40.2034ZM42.6616 21.5097L41.9193 29.2569C41.1616 30.5016 39.1738 31.1796 37.763 31.0135C35.2843 30.7162 33.8582 29.4454 33.5239 27.2354C33.0222 23.9164 35.166 19.6104 37.9362 18.3753C38.606 18.0767 39.2834 17.9277 39.906 17.9277C40.5618 17.9277 41.1578 18.0938 41.6161 18.4237C42.4375 19.0138 42.7979 20.081 42.6616 21.5097Z" fill="white"/>
<path d="M74.4679 26.9305L64.9966 21.0651V1.30393C64.9966 0.583901 64.4133 0 63.6926 0H13.4066C12.6866 0 12.1027 0.583901 12.1027 1.30393V20.8836C7.57623 23.7372 4.53207 25.8186 3.08406 27.0572C1.09504 28.7578 3.11817e-09 31.1817 3.11817e-09 33.8812V71.7277C-0.00013039 76.7544 4.08926 80.8438 9.11526 80.8438H68.6116C71.0678 80.8438 73.2959 79.8627 74.9367 78.2772C74.9397 78.2742 74.9437 78.2733 74.9466 78.2703C74.948 78.2688 74.9483 78.2668 74.9497 78.2652C76.6588 76.6073 77.7263 74.2915 77.7263 71.7277V33.8812C77.7264 31.6064 76.8733 28.421 74.4679 26.9305ZM64.9966 24.1322L71.5935 28.2176L64.9966 33.9717V24.1322ZM73.7877 29.7635C74.6957 30.8062 75.1186 32.4718 75.1186 33.8812V71.7277C75.1186 73.129 74.6634 74.4202 73.9071 75.4836L48.7614 51.592L73.7877 29.7635ZM14.7106 2.60786H62.3887V36.2453L38.8605 56.7681L14.7104 35.7129L14.7106 2.60786ZM12.1027 23.9716V33.4413L5.97696 28.101C7.35365 27.0791 9.42221 25.6843 12.1027 23.9716ZM2.60773 71.7277V33.8812C2.60773 32.326 3.10271 30.9598 4.01363 29.8497L29.8984 52.4153L4.6759 76.4594C3.41043 75.2713 2.60773 73.5964 2.60773 71.7277ZM9.11526 78.2359C8.36889 78.2359 7.66294 78.0836 6.99468 77.8512L31.8723 54.1361L38.0035 59.4812C38.2493 59.6952 38.5549 59.8021 38.8604 59.8021C39.1659 59.8021 39.4722 59.6952 39.7174 59.4805L46.7875 53.3137L71.9924 77.2613C71.0043 77.8678 69.854 78.2359 68.6117 78.2359H9.11526Z" fill="white"/>
</svg>
