<svg width="85" height="85" viewBox="0 0 85 85" fill="none" xmlns="http://www.w3.org/2000/svg">
<path d="M42.3751 29.3368C41.0857 29.3368 39.8253 28.9545 38.7532 28.2381C37.6811 27.5218 36.8455 26.5036 36.3521 25.3124C35.8587 24.1211 35.7296 22.8103 35.9811 21.5457C36.2326 20.2811 36.8535 19.1195 37.7653 18.2078C38.677 17.2961 39.8386 16.6752 41.1032 16.4236C42.3678 16.1721 43.6786 16.3012 44.8699 16.7946C46.0611 17.288 47.0793 18.1236 47.7956 19.1957C48.512 20.2678 48.8943 21.5282 48.8943 22.8176C48.8943 24.5466 48.2075 26.2048 46.9849 27.4274C45.7623 28.65 44.1041 29.3368 42.3751 29.3368Z" fill="white"/>
<path d="M42.375 84.75C33.994 84.75 25.8013 82.2648 18.8327 77.6086C11.8642 72.9523 6.43289 66.3343 3.22562 58.5912C0.0183604 50.8482 -0.820806 42.328 0.814243 34.1081C2.44929 25.8881 6.48512 18.3376 12.4114 12.4114C18.3376 6.48512 25.8881 2.44929 34.1081 0.814243C42.328 -0.820806 50.8482 0.0183604 58.5912 3.22562C66.3343 6.43289 72.9523 11.8642 77.6086 18.8327C82.2648 25.8013 84.75 33.994 84.75 42.375C84.75 53.6136 80.2855 64.3918 72.3387 72.3387C64.3918 80.2855 53.6136 84.75 42.375 84.75ZM42.375 6.51925C35.2834 6.51925 28.3511 8.62216 22.4546 12.562C16.5582 16.5019 11.9624 22.1018 9.24861 28.6536C6.53477 35.2054 5.82471 42.4148 7.20821 49.3701C8.59171 56.3255 12.0066 62.7144 17.0212 67.7289C22.0357 72.7434 28.4246 76.1583 35.3799 77.5418C42.3353 78.9254 49.5447 78.2153 56.0964 75.5014C62.6482 72.7876 68.2481 68.1919 72.188 62.2954C76.1279 56.399 78.2308 49.4666 78.2308 42.375C78.2308 32.8655 74.4532 23.7454 67.7289 17.0212C61.0046 10.2969 51.8846 6.51925 42.375 6.51925Z" fill="white"/>
<path d="M42.3751 68.4521C40.6461 68.4521 38.9879 67.7653 37.7653 66.5427C36.5427 65.3201 35.8558 63.6619 35.8558 61.9329V42.3752C35.8558 40.6462 36.5427 38.988 37.7653 37.7654C38.9879 36.5428 40.6461 35.856 42.3751 35.856C44.1041 35.856 45.7623 36.5428 46.9849 37.7654C48.2075 38.988 48.8943 40.6462 48.8943 42.3752V61.9329C48.8943 63.6619 48.2075 65.3201 46.9849 66.5427C45.7623 67.7653 44.1041 68.4521 42.3751 68.4521Z" fill="white"/>
</svg>
